<svg xmlns="http://www.w3.org/2000/svg" viewBox="0 0 32 32" fill="none">
  <defs>
    <linearGradient id="g" x1="0%" y1="0%" x2="100%" y2="100%">
      <stop offset="0%" stop-color="#6366f1"/>
      <stop offset="100%" stop-color="#06b6d4"/>
    </linearGradient>
  </defs>
  <!-- Left finger -->
  <path d="M7 4 C7 4 5.5 9 6 15 C6.3 18 8 20 8 20 L10 20 C10 20 8.5 18 8.5 15 C8 9 10 5 10 5 Z" fill="url(#g)"/>
  <!-- Middle finger -->
  <path d="M13.5 2 C13.5 2 12 8 12.5 16 C12.8 20 15 22 15 22 L17 22 C17 22 15 20 15 16 C14.5 8 16.5 3 16.5 3 Z" fill="url(#g)"/>
  <!-- Right finger -->
  <path d="M20 4 C20 4 18.5 9 19 15 C19.3 18 21 20 21 20 L23 20 C23 20 21.5 18 21.5 15 C21 9 23 5 23 5 Z" fill="url(#g)"/>
  <!-- Palm -->
  <path d="M5.5 4.5 Q14.5 1 26.5 4.5 L25 7 Q15 4 7 7 Z" fill="url(#g)"/>
  <!-- Green dot -->
  <circle cx="15" cy="27" r="2" fill="#10b981"/>
</svg>
